<svg width="30" height="30" viewBox="0 0 30 30" fill="none" xmlns="http://www.w3.org/2000/svg">
<path d="M28.2893 0.00012207H1.71072C0.765712 0.00012207 0 0.782671 0 1.74775V28.2521C0 29.2172 0.765712 29.9998 1.71072 29.9998H28.2893C29.2343 29.9998 30 29.2172 30 28.2521V1.74775C30 0.782671 29.2343 0.00012207 28.2893 0.00012207Z" fill="#0B3B75"/>
<path fill-rule="evenodd" clip-rule="evenodd" d="M3.54788 5.30907C7.07805 5.0644 11.051 3.28247 14.9999 1.76138C18.9896 3.30253 22.9218 5.0644 26.4519 5.30907L26.4526 13.1546C26.5108 18.3457 22.6933 23.3737 15.0005 28.2386C7.30718 23.3737 3.48962 18.3457 3.54852 13.1546L3.54917 5.30907H3.54788Z" fill="#6897CF"/>
<path fill-rule="evenodd" clip-rule="evenodd" d="M15.8636 18.5923C17.1574 18.9665 18.1037 20.16 18.1037 21.5743C18.1037 23.2883 16.7141 24.678 15.0001 24.678C13.2862 24.678 11.8965 23.2883 11.8965 21.5743C11.8965 20.16 12.8428 18.9665 14.1367 18.5923V6.41657V5.29614H15.8636V6.41657H19.2242V8.14348H15.8636V9.2639H18.1037V10.9908H15.8636V18.5923ZM15.9736 20.6008C15.725 20.3516 15.3807 20.1976 15.0001 20.1976C14.6202 20.1976 14.2758 20.3516 14.0266 20.6008C13.7781 20.8494 13.6234 21.1937 13.6234 21.5743C13.6234 21.9543 13.7774 22.2986 14.0266 22.5478C14.2752 22.797 14.6195 22.9511 15.0001 22.9511C15.3801 22.9511 15.7244 22.797 15.9736 22.5478C16.2228 22.2993 16.3768 21.9549 16.3768 21.5743C16.3768 21.1944 16.2228 20.85 15.9736 20.6008Z" fill="#FEFEFE"/>
</svg>
