<svg width="138" height="110" viewBox="0 0 138 110" fill="none" xmlns="http://www.w3.org/2000/svg">
<g clip-path="url(#clip0_1982_1978)">
<path d="M90.8345 10.2747H47.1664C45.6274 10.2747 44.3682 11.5651 44.3682 13.1507V56.6789C44.3682 58.2646 45.6274 59.5549 47.1664 59.5549H90.8345C92.3891 59.5549 93.6328 58.2646 93.6328 56.6789V13.1507C93.6328 11.5651 92.3891 10.2747 90.8345 10.2747Z" fill="#0B3B75"/>
<path fill-rule="evenodd" clip-rule="evenodd" d="M50.1817 18.996C55.9803 18.5918 62.5095 15.6692 69.0076 13.1663C75.5524 15.7003 82.0195 18.5918 87.8181 18.996V31.8834C87.9113 40.4025 81.6308 48.6729 69.0076 56.6634C56.3689 48.6729 50.0884 40.4025 50.1817 31.8834V18.996Z" fill="#6897CF"/>
<path fill-rule="evenodd" clip-rule="evenodd" d="M70.4229 40.8067C72.5371 41.4285 74.0917 43.3873 74.0917 45.7036C74.0917 48.533 71.822 50.8026 69.0082 50.8026C66.1789 50.8026 63.9092 48.533 63.9092 45.7036C63.9092 43.3873 65.4638 41.4285 67.578 40.8067V20.8148V18.9804H70.4229V20.8148H75.9416V23.6441H70.4229V25.4941H74.0917V28.3234H70.4229V40.8067ZM70.5939 44.118C70.1897 43.6982 69.63 43.4495 69.0082 43.4495C68.3708 43.4495 67.8112 43.6982 67.407 44.118C66.9872 44.5221 66.7385 45.0818 66.7385 45.7036C66.7385 46.341 66.9872 46.9007 67.407 47.3048C67.8112 47.7246 68.3708 47.9733 69.0082 47.9733C69.63 47.9733 70.1897 47.7246 70.5939 47.3048C71.0136 46.9007 71.2623 46.341 71.2623 45.7036C71.2623 45.0818 71.0136 44.5221 70.5939 44.118Z" fill="#FEFEFE"/>
<path d="M105.043 86.9932H102.307V74.4167H104.856V76.2045C105.291 75.365 105.68 74.8209 106.022 74.5411C106.364 74.2768 106.753 74.1369 107.204 74.1369C107.825 74.1369 108.416 74.339 108.991 74.7587L108.136 77.6502C107.685 77.2927 107.266 77.1061 106.862 77.1061C106.488 77.1061 106.146 77.246 105.851 77.5259C105.571 77.8057 105.369 78.3187 105.229 79.0493C105.105 79.78 105.043 81.1325 105.043 83.1068V86.9932ZM115.023 82.998L117.744 83.5421C117.371 84.8168 116.811 85.7496 116.049 86.3559C115.272 86.9777 114.339 87.2731 113.251 87.2731C111.727 87.2731 110.546 86.7756 109.722 85.7496C108.743 84.5681 108.245 82.9047 108.245 80.7749C108.245 78.6762 108.743 76.9973 109.722 75.7381C110.561 74.6654 111.634 74.1369 112.971 74.1369C114.432 74.1369 115.583 74.681 116.422 75.7692C117.386 77.0128 117.868 78.8472 117.868 81.2879L117.852 81.661H111.028C111.043 82.656 111.277 83.4177 111.712 83.9618C112.132 84.5215 112.66 84.7857 113.266 84.7857C114.153 84.7857 114.728 84.1795 115.023 82.998ZM115.163 79.6245C115.147 78.6451 114.93 77.9145 114.541 77.417C114.153 76.9196 113.671 76.6708 113.127 76.6708C112.551 76.6708 112.069 76.9351 111.665 77.4481C111.277 77.9611 111.074 78.6918 111.074 79.6245H115.163ZM124.957 82.998L127.677 83.5421C127.304 84.8168 126.745 85.7496 125.983 86.3559C125.206 86.9777 124.273 87.2731 123.185 87.2731C121.661 87.2731 120.48 86.7756 119.656 85.7496C118.676 84.5681 118.179 82.9047 118.179 80.7749C118.179 78.6762 118.676 76.9973 119.656 75.7381C120.495 74.6654 121.568 74.1369 122.905 74.1369C124.366 74.1369 125.517 74.681 126.356 75.7692C127.32 77.0128 127.802 78.8472 127.802 81.2879L127.786 81.661H120.962C120.977 82.656 121.21 83.4177 121.646 83.9618C122.065 84.5215 122.594 84.7857 123.2 84.7857C124.086 84.7857 124.661 84.1795 124.957 82.998ZM125.112 79.6245C125.081 78.6451 124.864 77.9145 124.475 77.417C124.086 76.9196 123.604 76.6708 123.06 76.6708C122.485 76.6708 122.003 76.9351 121.615 77.4481C121.21 77.9611 121.008 78.6918 121.008 79.6245H125.112Z" fill="#6897CF"/>
<path d="M10.1982 86.9466V69.6908H14.7532C16.4632 69.6908 17.5669 69.7685 18.0955 69.9395C18.935 70.2038 19.619 70.779 20.1631 71.6496C20.7072 72.5046 20.9715 73.6394 20.9715 75.0074C20.9715 76.2511 20.7383 77.3082 20.2719 78.1477C19.8055 78.9872 19.2148 79.5779 18.5152 79.9199C17.8157 80.2619 16.6031 80.4329 14.8931 80.4329H13.0276V86.9466H10.1982ZM13.0276 72.5978V77.5259H14.5977C15.6548 77.5259 16.3699 77.4481 16.7586 77.2927C17.1317 77.1528 17.4426 76.8729 17.6913 76.4843C17.94 76.0957 18.0489 75.6137 18.0489 75.0541C18.0489 74.4789 17.9245 73.997 17.6758 73.5928C17.427 73.2041 17.1161 72.9399 16.743 72.7999C16.3855 72.6756 15.6082 72.5978 14.4112 72.5978H13.0276ZM23.6764 78.241L21.2202 77.7435C21.5156 76.4532 22.013 75.536 22.6971 74.9919C23.3655 74.4322 24.3449 74.1524 25.6197 74.1524C26.7701 74.1524 27.6251 74.3079 28.2314 74.6343C28.8221 74.9453 29.2574 75.3805 29.5217 75.9402C29.7704 76.4998 29.8948 77.5103 29.8948 78.9716L29.8792 82.827C29.8792 83.9152 29.9103 84.7236 30.0036 85.2521C30.0813 85.7807 30.2368 86.3403 30.47 86.9466H27.8116L27.4696 85.5786C27.0032 86.1227 26.5058 86.5424 25.9772 86.8222C25.4487 87.1021 24.889 87.2264 24.2983 87.2264C23.3033 87.2264 22.495 86.9 21.8576 86.216C21.2358 85.5475 20.9093 84.6614 20.9093 83.5421C20.9093 82.827 21.0492 82.2207 21.2979 81.6921C21.5622 81.1636 21.9198 80.7438 22.3861 80.4174C22.8681 80.1065 23.6143 79.8266 24.6403 79.5935C25.8995 79.2981 26.7701 79.0183 27.2675 78.7695C27.2675 78.0855 27.2209 77.6347 27.1121 77.417C27.0188 77.1994 26.8322 77.0284 26.5835 76.8885C26.3192 76.7486 25.9461 76.6708 25.4798 76.6708C24.9978 76.6708 24.6092 76.7797 24.3449 77.0129C24.0651 77.2305 23.8474 77.6347 23.6764 78.241ZM27.2675 80.9148C26.9255 81.0548 26.3814 81.2258 25.6508 81.4123C24.8113 81.63 24.2672 81.8787 24.0029 82.143C23.7542 82.4228 23.6143 82.7648 23.6143 83.1845C23.6143 83.6664 23.7697 84.0706 24.0495 84.3971C24.3294 84.7236 24.7025 84.8946 25.1222 84.8946C25.5108 84.8946 25.8839 84.7547 26.257 84.4904C26.6457 84.2261 26.8944 83.9152 27.0499 83.5576C27.1898 83.2001 27.2675 82.5316 27.2675 81.5833V80.9148ZM30.5321 83.3866L33.2371 82.8736C33.4703 84.1795 34.2009 84.8479 35.4135 84.8479C36.0509 84.8479 36.5328 84.7236 36.8593 84.4748C37.1702 84.2106 37.3257 83.8841 37.3257 83.4799C37.3257 83.2156 37.2635 82.998 37.1236 82.8425C36.9681 82.6715 36.6727 82.5472 36.2374 82.4228C34.0299 81.832 32.6153 81.2724 32.009 80.7438C31.2628 80.0754 30.8897 79.1582 30.8897 77.9922C30.8897 76.8263 31.2628 75.8936 31.9934 75.194C32.7241 74.4944 33.7968 74.1524 35.1959 74.1524C36.5328 74.1524 37.5433 74.4012 38.2429 74.9297C38.9269 75.4583 39.4243 76.2977 39.7042 77.4637L37.1702 78.0544C36.937 77.0439 36.2996 76.5309 35.2425 76.5309C34.574 76.5309 34.1077 76.6242 33.8278 76.8263C33.548 77.0128 33.4081 77.2771 33.4081 77.5725C33.4081 77.8679 33.5325 78.0855 33.7812 78.2721C34.0299 78.4586 34.8383 78.7384 36.1753 79.1115C37.6832 79.5313 38.7092 80.0443 39.2378 80.6506C39.7819 81.2569 40.0462 82.0652 40.0462 83.0602C40.0462 84.2727 39.6264 85.2677 38.8025 86.0605C37.9786 86.8378 36.8437 87.2264 35.398 87.2264C34.0921 87.2264 33.0039 86.9 32.18 86.2471C31.3405 85.5941 30.7964 84.6303 30.5321 83.3866ZM40.3571 83.3866L43.062 82.8736C43.2952 84.1795 44.0259 84.8479 45.2385 84.8479C45.8758 84.8479 46.3578 84.7236 46.6842 84.4748C47.0107 84.2106 47.1661 83.8841 47.1661 83.4799C47.1661 83.2156 47.0884 82.998 46.9485 82.8425C46.793 82.6715 46.4977 82.5472 46.0624 82.4228C43.8549 81.832 42.4402 81.2724 41.8339 80.7438C41.0877 80.0754 40.7146 79.1582 40.7146 77.9922C40.7146 76.8263 41.0877 75.8936 41.8184 75.194C42.549 74.4944 43.6217 74.1524 45.0208 74.1524C46.3578 74.1524 47.3682 74.4012 48.0678 74.9297C48.7674 75.4583 49.2493 76.2977 49.5291 77.4637L46.9951 78.0544C46.7619 77.0439 46.1246 76.5309 45.0675 76.5309C44.4145 76.5309 43.9326 76.6242 43.6528 76.8263C43.373 77.0128 43.2331 77.2771 43.2331 77.5725C43.2331 77.8679 43.3574 78.0855 43.6217 78.2721C43.8704 78.4586 44.6633 78.7384 46.0002 79.1115C47.5081 79.5313 48.5342 80.0443 49.0783 80.6506C49.6068 81.2569 49.8711 82.0652 49.8711 83.0602C49.8711 84.2727 49.4514 85.2677 48.643 86.0605C47.8191 86.8378 46.6842 87.2264 45.2385 87.2264C43.9171 87.2264 42.8444 86.9 42.0049 86.2471C41.181 85.5941 40.6214 84.6303 40.3571 83.3866ZM53.0269 86.9466L49.8089 74.4323H52.4206L54.3172 82.6249L56.0894 74.4323H58.67L60.3645 82.6249L62.3077 74.4323H64.9661L61.7015 86.9466H59.0898L57.3642 78.8939L55.623 86.9466H53.0269ZM64.6707 80.5107C64.6707 79.2825 64.9194 78.1632 65.4013 77.1683C65.8833 76.1578 66.5206 75.3961 67.2979 74.8986C68.0752 74.4012 68.9458 74.1524 69.9252 74.1524C71.5575 74.1524 72.8478 74.7898 73.7805 76.0801C74.7288 77.3859 75.1952 78.8939 75.1952 80.6195C75.1952 81.9098 74.9465 83.0757 74.4645 84.1017C73.9671 85.1433 73.3297 85.9206 72.5369 86.4491C71.744 86.9777 70.8735 87.2264 69.9407 87.2264C68.4328 87.2264 67.1736 86.6512 66.1631 85.4853C65.1682 84.3194 64.6707 82.6715 64.6707 80.5107ZM67.4223 80.6817C67.4223 81.9564 67.671 82.9047 68.1685 83.5576C68.666 84.2106 69.2567 84.537 69.9563 84.537C70.6403 84.537 71.2155 84.2106 71.7129 83.5576C72.1949 82.9047 72.428 81.9409 72.428 80.6661C72.428 79.4224 72.1793 78.4742 71.6974 77.8212C71.1999 77.1683 70.6092 76.8418 69.9252 76.8418C69.2412 76.8418 68.6504 77.1683 68.1685 77.8212C67.671 78.4742 67.4223 79.438 67.4223 80.6817ZM78.8174 86.9466H76.1124V74.4323H78.6308V76.2045C79.0506 75.3805 79.4392 74.8209 79.7812 74.5566C80.1232 74.2768 80.5119 74.1524 80.9471 74.1524C81.569 74.1524 82.1597 74.3545 82.7194 74.7743L81.8799 77.6502C81.4291 77.2927 81.0093 77.1061 80.6051 77.1061C80.232 77.1061 79.9056 77.246 79.6102 77.5259C79.3304 77.8057 79.1283 78.3032 79.0039 79.0493C78.8796 79.78 78.8174 81.1169 78.8174 83.0757V86.9466ZM92.109 86.9466H89.6061V85.1122C89.1864 85.8118 88.7045 86.3403 88.1448 86.6979C87.5852 87.0554 87.01 87.2264 86.4193 87.2264C85.2689 87.2264 84.2895 86.6668 83.4345 85.5164C82.595 84.366 82.1753 82.7337 82.1753 80.6195C82.1753 78.4742 82.5795 76.8574 83.4189 75.7692C84.2273 74.681 85.2533 74.1524 86.4504 74.1524C87.0256 74.1524 87.5541 74.2923 88.0516 74.5722C88.549 74.8675 88.9999 75.3028 89.4041 75.8936V69.753H92.109V86.9466ZM84.9269 80.4174C84.9269 81.5522 85.0201 82.4072 85.2222 82.9513C85.4088 83.511 85.6731 83.9307 86.0306 84.2106C86.3882 84.4904 86.7924 84.6303 87.2276 84.6303C87.8184 84.6303 88.3314 84.3038 88.7667 83.6665C89.202 83.0135 89.4196 82.0497 89.4196 80.7438C89.4196 79.2981 89.202 78.2565 88.7822 77.6347C88.3625 76.9973 87.8184 76.6708 87.1655 76.6708C86.5436 76.6708 86.0151 76.9818 85.5798 77.6036C85.1445 78.2254 84.9269 79.1737 84.9269 80.4174Z" fill="#0B3B75"/>
<path fill-rule="evenodd" clip-rule="evenodd" d="M96.7881 89.7449C98.9179 90.3667 100.472 92.3255 100.472 94.6418C100.472 97.4556 98.1872 99.7408 95.3734 99.7408C92.5596 99.7408 90.2744 97.4556 90.2744 94.6418C90.2744 92.3255 91.829 90.3667 93.9588 89.7449V69.753V67.903H96.7881V69.753H102.307V72.5823H96.7881V74.4167H100.472V77.2616H96.7881V89.7449ZM96.9747 93.0406C96.5705 92.6364 95.9953 92.3876 95.3734 92.3876C94.7516 92.3876 94.1764 92.6364 93.7722 93.0406C93.368 93.4603 93.1193 94.0199 93.1193 94.6418C93.1193 95.2636 93.368 95.8388 93.7722 96.243C94.1764 96.6472 94.7516 96.9115 95.3734 96.9115C95.9953 96.9115 96.5705 96.6472 96.9747 96.243C97.3788 95.8388 97.6276 95.2636 97.6276 94.6418C97.6276 94.0199 97.3788 93.4603 96.9747 93.0406Z" fill="#6897CF"/>
</g>
<defs>
<clipPath id="clip0_1982_1978">
<rect width="138" height="110" fill="white"/>
</clipPath>
</defs>
</svg>
