<svg width="20" height="20" viewBox="0 0 20 20" fill="none" xmlns="http://www.w3.org/2000/svg">
<path d="M10.0003 1.66699C5.40033 1.66699 1.66699 5.40033 1.66699 10.0003C1.66699 14.6003 5.40033 18.3337 10.0003 18.3337C14.6003 18.3337 18.3337 14.6003 18.3337 10.0003C18.3337 5.40033 14.6003 1.66699 10.0003 1.66699ZM10.8337 15.8337H9.16699V14.167H10.8337V15.8337ZM12.5587 9.37533L11.8087 10.142C11.392 10.567 11.092 10.9503 10.942 11.5503C10.8753 11.817 10.8337 12.117 10.8337 12.5003H9.16699V12.0837C9.16699 11.7003 9.23366 11.3337 9.35033 10.992C9.51699 10.5087 9.79199 10.0753 10.142 9.72533L11.1753 8.67533C11.5587 8.30866 11.742 7.75866 11.6337 7.17533C11.5253 6.57533 11.0587 6.06699 10.4753 5.90033C9.55033 5.64199 8.69199 6.16699 8.41699 6.95866C8.31699 7.26699 8.05866 7.50033 7.73366 7.50033H7.48366C7.00033 7.50033 6.66699 7.03366 6.80033 6.56699C7.15866 5.34199 8.20033 4.40866 9.49199 4.20866C10.7587 4.00866 11.967 4.66699 12.717 5.70866C13.7003 7.06699 13.4087 8.52533 12.5587 9.37533Z" fill="#2E2E2E"/>
</svg>
