<svg width="20" height="20" viewBox="0 0 20 20" fill="none" xmlns="http://www.w3.org/2000/svg">
<path d="M9.99984 1.66667C5.39984 1.66667 1.6665 5.4 1.6665 10C1.6665 14.6 5.39984 18.3333 9.99984 18.3333C14.5998 18.3333 18.3332 14.6 18.3332 10C18.3332 5.4 14.5998 1.66667 9.99984 1.66667ZM10.8332 15.8333H9.1665V14.1667H10.8332V15.8333ZM12.5582 9.375L11.8082 10.1417C11.3915 10.5667 11.0915 10.95 10.9415 11.55C10.8748 11.8167 10.8332 12.1167 10.8332 12.5H9.1665V12.0833C9.1665 11.7 9.23317 11.3333 9.34984 10.9917C9.5165 10.5083 9.7915 10.075 10.1415 9.725L11.1748 8.675C11.5582 8.30833 11.7415 7.75833 11.6332 7.175C11.5248 6.575 11.0582 6.06667 10.4748 5.9C9.54984 5.64167 8.6915 6.16667 8.4165 6.95833C8.3165 7.26667 8.05817 7.5 7.73317 7.5H7.48317C6.99984 7.5 6.6665 7.03333 6.79984 6.56667C7.15817 5.34167 8.19984 4.40833 9.4915 4.20833C10.7582 4.00833 11.9665 4.66667 12.7165 5.70833C13.6998 7.06667 13.4082 8.525 12.5582 9.375Z" fill="#5E637A"/>
</svg>
